<?xml version="1.0" encoding="UTF-8"?>
<svg version="1.1" xmlns="http://www.w3.org/2000/svg" width="512" height="512">
<path d="M0 0 C6.64768984 5.92287618 11.9812117 13.18383467 17.23632812 20.32543945 C18.54804461 22.09294827 19.86055839 23.85986565 21.17382812 25.6262207 C21.82351563 26.50101074 22.47320312 27.37580078 23.14257812 28.27709961 C25.44165864 31.35058865 27.78018061 34.39187859 30.12670898 37.42919922 C37.03881018 46.37729322 43.61084063 55.53168251 50.04882812 64.82543945 C50.520625 65.50493652 50.99242187 66.18443359 51.47851562 66.88452148 C54.6912589 71.51615241 57.8801365 76.16356595 61.04882812 80.82543945 C61.45278809 81.41969727 61.85674805 82.01395508 62.27294922 82.6262207 C78.74579625 106.93461828 94.1106639 131.97715077 108.04882812 157.82543945 C108.51643555 158.69217285 108.98404297 159.55890625 109.46582031 160.4519043 C137.28860193 212.29178053 164.59037742 275.77785583 150.04882812 335.82543945 C149.85015137 336.65366211 149.65147461 337.48188477 149.44677734 338.33520508 C141.2800265 371.29584446 125.16120493 399.08706629 102.04882812 423.82543945 C101.28957031 424.63883789 100.5303125 425.45223633 99.74804688 426.2902832 C84.80307485 441.77337206 66.58641947 453.94809282 47.04882812 462.82543945 C46.02402344 463.29143555 46.02402344 463.29143555 44.97851562 463.7668457 C2.16388599 482.92919867 -46.23019944 483.38762104 -89.95117188 466.82543945 C-106.31466572 460.54696415 -121.31238583 451.84351154 -134.95117188 440.82543945 C-135.46599121 440.41213379 -135.98081055 439.99882812 -136.51123047 439.57299805 C-173.59882078 409.62586697 -199.2095398 367.06448462 -204.76806641 319.25292969 C-206.09754066 301.6276463 -206.02490548 283.05678578 -201.95117188 265.82543945 C-201.73074219 264.87636719 -201.5103125 263.92729492 -201.28320312 262.94946289 C-195.12885232 237.10281765 -185.48469568 212.7098234 -173.95117188 188.82543945 C-173.60376953 188.10420898 -173.25636719 187.38297852 -172.8984375 186.63989258 C-171.01605581 182.75676443 -169.07531867 178.90671545 -167.10009766 175.07006836 C-165.77383243 172.47897561 -164.47109581 169.8764836 -163.16601562 167.2746582 C-155.43865847 152.00614528 -146.85356866 137.42118837 -137.84326172 122.89135742 C-136.24990998 120.30951083 -134.67887984 117.71744187 -133.12695312 115.1105957 C-120.15310618 93.36187494 -105.64821496 72.4354476 -90.95117188 51.82543945 C-90.42539551 51.08503418 -89.89961914 50.34462891 -89.35791016 49.58178711 C-81.08462794 37.94534074 -72.51476188 26.54406537 -63.80395508 15.23193359 C-62.55077101 13.60423095 -61.30202435 11.97310381 -60.05737305 10.33886719 C-59.45127197 9.54810791 -58.8451709 8.75734863 -58.22070312 7.94262695 C-57.68550049 7.24121582 -57.15029785 6.53980469 -56.59887695 5.81713867 C-49.99423671 -2.16636334 -41.94258275 -7.17775316 -31.72070312 -8.9206543 C-19.96822795 -9.99810266 -9.21175238 -7.5011743 0 0 Z " fill="#ff4d4f" transform="translate(281.951171875,21.174560546875)"/>
</svg>
